# xmcd CD database file
#
# Track frame offsets:
#	150
#	26510
#	47460
#	68675
#	85748
#	119750
#	151305
#	187618
#	216975
#	236098
#
# Disc length: 3444 seconds
#
# Revision: 0
# Processed by: cddbd v1.5.2PL0 Copyright (c) Steve Scherf et al.
# Submitted via: CDex 1.50
#
DISCID=7c0d720a
DTITLE=Hank Mobley - The Complete Hank Mobley On Savoy Disk1
DYEAR=1995
DGENRE=Jazz
TTITLE0=There Will Never Be Another You
TTITLE1=Cattin'
TTITLE2=Madeline
TTITLE3=When I Fall in Love
TTITLE4=Budo
TTITLE5=I Married an Angel
TTITLE6=The Jazz Message With Freedom for All
TTITLE7=B for BB
TTITLE8=Space Fight
TTITLE9=Blues Number Two
EXTD=YEAR: 1995
EXTT0=
EXTT1=
EXTT2=
EXTT3=
EXTT4=
EXTT5=
EXTT6=
EXTT7=
EXTT8=
EXTT9=
PLAYORDER=
